<svg xmlns="http://www.w3.org/2000/svg" viewBox="0 0 178.3 141.52"><g id="Layer_2" data-name="Layer 2"><g id="Layer_1-2" data-name="Layer 1"><path d="M152,58.24c-2.82-3.38-5.09-6.57-7.83-9.3a220.78,220.78,0,0,0-29.57-24.48,43.11,43.11,0,0,1-11.3-11.86c-1.52-2.31-2.38-4.77-1.6-7.56,1.38-4.92,7.42-6.87,10.58-2.95,5.13,6.36,12.17,10,18.61,14.49,11,7.73,21.35,16.19,29.75,26.83,2.57,3.26,5.63,6.12,8.43,9.2,2.45,2.71,4.95,5.39,7.24,8.24a8.34,8.34,0,0,1-1.57,12.22c-10.46,7.65-18.46,17.73-27.07,27.16-7.67,8.41-14.43,17.63-21.84,26.28a129.24,129.24,0,0,1-12,12.27c-4.35,3.89-9.89,3.52-13.16-.33s-2.64-9.22,1.48-13.18,8.33-7.63,12.11-11.79c3.06-3.37,5.33-7.46,8.32-10.9,6.93-8,14-15.79,21.16-23.59a22,22,0,0,1,3.61-2.67l-.69-1c-.69-.06-1.38-.18-2.07-.18q-35-.3-69.94-.56c-21.72-.16-43.45-.27-65.17-.45a17.9,17.9,0,0,1-5.15-.78A6.07,6.07,0,0,1,0,67.51a6.14,6.14,0,0,1,4.32-5.83A16.26,16.26,0,0,1,9,60.94c11.49-.21,23-.23,34.47-.54,12.89-.35,25.78-1.16,38.68-1.37,22.81-.37,45.62-.43,68.43-.62C150.8,58.41,151,58.36,152,58.24Z"/></g></g></svg>